<svg width="100" height="94" viewBox="0 0 100 94" fill="none" xmlns="http://www.w3.org/2000/svg">
<path d="M10.1181 27.9995C9.98642 26.1097 9.88886 24.2176 9.82541 22.3242C9.70146 18.1858 9.84841 15.465 12.635 12.0925C14.2395 10.1506 16.3985 8.49749 18.5625 7.17881C25.5701 2.90882 34.5372 0.922218 42.7506 0.274598C55.9014 -0.762323 73.1617 0.900778 83.9163 9.36324C86.641 11.5077 89.0341 14.7503 89.3552 18.2679C89.1087 19.449 89.2033 21.986 89.3431 23.1927C89.3648 24.5931 89.2016 26.5105 89.1461 27.9594C92.8637 30.1014 95.7898 33.3863 97.4902 37.3252C99.6698 42.5137 99.6099 49.9031 97.4755 55.1024C95.4938 59.998 91.6433 63.9023 86.7755 65.9525C80.5111 68.5401 74.2328 68.008 68.1064 65.4795C67.1811 66.4169 66.1855 67.2858 65.2429 68.2354C65.8809 68.4133 66.5188 68.7024 67.1134 68.9923C69.3095 70.0643 71.2842 71.6996 72.0871 74.071C72.3892 74.9624 72.5749 75.8903 72.857 76.7887C73.7815 79.7339 75.1885 83.2953 73.6955 86.3003C72.4569 88.7959 69.5326 90.1222 67.0362 90.9668C57.5697 94.1714 38.3544 94.2756 29.2807 89.7368C27.3797 88.7863 25.8076 87.5112 25.1355 85.4263C24.2446 82.6617 25.5427 79.6358 26.2921 76.9884C26.6728 75.6438 26.9333 74.2281 27.5903 72.9825C28.8691 70.5582 31.4252 69.0044 33.9767 68.2128C33.1981 67.3301 32.0363 66.2832 31.1608 65.4473C21.5243 70.1172 8.42097 67.3301 2.9119 57.7177C0.730777 53.9723 -0.0806367 49.8779 0.00625076 45.5755C0.158673 38.0268 3.58105 31.8493 10.1181 27.9995Z" fill="black"/>
<path d="M47.2126 4.56976C49.7785 4.48747 52.3469 4.51976 54.9093 4.66663C62.9591 5.20618 71.6114 6.90869 78.6501 11.037C81.6994 12.8249 84.8303 15.6425 84.918 19.4352C84.9241 19.787 84.9189 20.1389 84.9041 20.4902C84.8659 22.6813 84.7887 24.8715 84.6715 27.0597C84.6125 28.1749 84.5769 29.6902 84.3182 30.7383C91.0131 33.266 94.6145 38.6346 94.5546 45.7661C94.6154 48.759 94.3593 51.0384 93.1345 53.8351C90.6147 59.5952 84.9336 62.9162 78.7421 63.0525C76.8299 63.1133 74.9194 62.9006 73.068 62.4215C70.6809 61.7574 69.4275 61.1056 67.3591 59.8574C63.9044 63.2261 61.2969 65.147 56.621 66.6921C54.7704 67.2294 50.7194 67.9871 48.7724 67.62C46.6964 67.5757 44.5981 67.087 42.5777 66.6131C38.5242 65.5628 34.8514 62.8459 32.0025 59.8383C28.8677 61.8833 25.2163 62.9961 21.4737 63.0456C16.8592 63.0924 12.6403 61.7635 9.29132 58.4755C6.47499 55.7109 4.60946 51.5731 4.59905 47.6039C4.36807 45.6634 4.76953 41.8462 5.453 40.0876C7.41877 35.0291 10.2727 32.9292 14.8933 30.7395C14.4931 28.9463 14.4092 23.0486 14.4151 20.9826C14.3974 20.6876 14.3837 20.3925 14.3743 20.0972C14.309 17.772 15.2937 15.6441 16.9175 14.041C23.9135 7.13428 37.937 4.78971 47.2126 4.56976Z" fill="#F5620D"/>
<path d="M83.287 33.4009C83.8156 32.3874 84.0387 31.8432 84.3182 30.7383C91.0131 33.266 94.6145 38.6346 94.5546 45.7661C94.6154 48.759 94.3593 51.0384 93.1345 53.8351C90.6147 59.5952 84.9336 62.9162 78.7421 63.0525C76.8299 63.1133 74.9194 62.9006 73.068 62.4215C70.6809 61.7574 69.4275 61.1056 67.3591 59.8574C63.9044 63.2261 61.2969 65.147 56.621 66.6921C54.7704 67.2294 50.7194 67.9871 48.7724 67.62C46.6964 67.5757 44.5981 67.087 42.5777 66.6131C38.5242 65.5628 34.8514 62.8459 32.0025 59.8383C28.8677 61.8833 25.2163 62.9961 21.4737 63.0456C16.8592 63.0924 12.6403 61.7635 9.29132 58.4755C6.47499 55.7109 4.60946 51.5731 4.59905 47.6039C4.36807 45.6634 4.76953 41.8462 5.453 40.0876C7.41877 35.0291 10.2727 32.9292 14.8933 30.7395C15.2325 31.8491 15.4834 32.3777 16.0464 33.3974C16.7436 34.3735 17.353 35.2036 18.2256 36.0519C18.6311 36.4459 19.9551 37.2783 20.1593 37.5759C20.9766 37.8746 22.0075 38.5154 22.7999 38.9209C25.727 40.4187 28.7868 41.4362 31.9593 42.2747C32.7425 42.4817 33.9171 42.6491 34.6384 42.9249C39.4945 43.6789 44.3164 44.2191 49.2481 44.2547C58.1191 44.3186 71.614 42.6283 79.1726 37.5808C79.946 36.9667 80.7576 36.4109 81.4746 35.7267C82.1534 35.0795 82.5952 34.227 83.1898 33.5155L83.287 33.4009Z" fill="#FEC101"/>
<path d="M14.8933 30.7395C15.2325 31.8491 15.4834 32.3777 16.0464 33.3974C16.7436 34.3735 17.353 35.2036 18.2256 36.0519C18.6311 36.4459 19.9551 37.2783 20.1593 37.5759C20.4643 39.0603 20.8781 40.4208 21.293 41.8755C21.9709 44.2957 23.3976 47.85 24.6305 50.048C25.3784 51.3119 26.0169 52.376 26.8298 53.6008C27.879 54.9757 30.0769 57.8879 31.2934 59.0076C31.5302 59.3175 31.7417 59.5518 32.0025 59.8383C28.8677 61.8833 25.2163 62.9961 21.4737 63.0456C16.8592 63.0924 12.6403 61.7635 9.29132 58.4755C6.47499 55.7109 4.60946 51.5731 4.59905 47.6039C4.36807 45.6634 4.76953 41.8462 5.453 40.0876C7.41877 35.0291 10.2727 32.9292 14.8933 30.7395Z" fill="#FE8900"/>
<path d="M17.5249 43.487C17.5394 43.48 18.199 42.9963 18.3108 42.926C19.3811 42.2532 20.0758 42.0988 21.293 41.8755C21.9709 44.2957 23.3976 47.85 24.6305 50.048C25.3784 51.3119 26.0169 52.376 26.8298 53.6008C26.5024 53.7388 26.1732 53.8716 25.8421 54.0009C23.505 54.8993 20.9236 55.0582 18.6047 54.0105C16.9459 53.2796 15.6496 51.9134 15.006 50.219C14.4922 48.8024 14.5667 47.2386 15.213 45.877C15.6439 44.9782 16.569 43.8174 17.5249 43.487Z" fill="#F5620D"/>
<path d="M17.5249 43.487C17.5394 43.48 18.199 42.9963 18.3108 42.926C19.3811 42.2532 20.0758 42.0988 21.293 41.8755C21.9709 44.2957 23.3976 47.85 24.6305 50.048C21.4887 51.0784 17.8656 50.3579 16.7729 46.6481C16.4401 45.5183 16.9199 44.4471 17.5249 43.487Z" fill="black"/>
<path d="M14.8933 30.7395C15.2325 31.8491 15.4834 32.3777 16.0464 33.3974C15.2452 33.7253 14.2796 34.0906 13.5256 34.4934C8.9751 36.9253 4.7519 42.2473 4.59905 47.6039C4.36807 45.6634 4.76953 41.8462 5.453 40.0876C7.41877 35.0291 10.2727 32.9292 14.8933 30.7395Z" fill="#F5620D"/>
<path d="M83.287 33.4009C83.8156 32.3874 84.0387 31.8432 84.3182 30.7383C91.0131 33.266 94.6145 38.6346 94.5546 45.7661C94.6154 48.759 94.3593 51.0384 93.1345 53.8351C90.6147 59.5952 84.9336 62.9162 78.7421 63.0525C76.8299 63.1133 74.9194 62.9006 73.068 62.4215C70.6809 61.7574 69.4275 61.1056 67.3591 59.8574C69.3468 58.0788 70.9656 55.934 72.4673 53.7405C73.1391 52.547 73.9065 51.3891 74.5896 50.1661C76.0114 47.1021 76.8377 45.1698 77.9323 41.9136L78.0095 41.8124C78.0243 41.692 78.2673 40.9473 78.3307 40.8484C78.723 40.2394 78.9713 37.9583 79.1726 37.5808C79.946 36.9667 80.7576 36.4109 81.4746 35.7267C82.1534 35.0795 82.5952 34.227 83.1898 33.5155L83.287 33.4009Z" fill="#FE8900"/>
<path d="M78.0095 41.8124C79.6214 41.9876 80.939 42.7474 82.0848 43.8421C83.8521 44.119 84.7487 47.5172 84.4779 49.0993C84.1706 50.8362 83.1863 52.3795 81.742 53.3916C79.7967 54.7552 76.7579 55.1241 74.5158 54.3941C73.8474 54.2136 73.1235 53.9645 72.4673 53.7405C73.1391 52.547 73.9065 51.3891 74.5896 50.1661C76.0114 47.1021 76.8377 45.1698 77.9323 41.9136L78.0095 41.8124Z" fill="#F5620D"/>
<path d="M78.0095 41.8124C79.6214 41.9876 80.939 42.7474 82.0848 43.8421C83.3695 46.3229 82.1959 48.6991 79.7924 49.8666C77.9132 50.7806 76.5599 50.6313 74.5896 50.1661C76.0114 47.1021 76.8377 45.1698 77.9323 41.9136L78.0095 41.8124Z" fill="black"/>
<path d="M83.287 33.4009C83.8156 32.3874 84.0387 31.8432 84.3182 30.7383C91.0131 33.266 94.6145 38.6346 94.5546 45.7661C94.1301 45.3848 93.8359 43.5202 93.5451 42.8227C91.9679 39.0398 89.3205 36.259 85.6836 34.3927C84.9701 34.0263 84.0474 33.7436 83.287 33.4009Z" fill="#F5620D"/>
<path d="M72.4673 53.7405C73.1235 53.9645 73.8474 54.2136 74.5158 54.3941C73.627 55.9748 72.1774 57.4938 71.667 59.117C71.7807 59.6039 71.8328 59.8461 72.035 60.3087C72.3032 60.9233 73.0063 61.8095 73.068 62.4215C70.6809 61.7574 69.4275 61.1056 67.3591 59.8574C69.3468 58.0788 70.9656 55.934 72.4673 53.7405Z" fill="#FE9101"/>
<path d="M79.1726 37.5808C78.9713 37.9583 78.723 40.2394 78.3307 40.8484C78.2673 40.9473 78.0243 41.692 78.0095 41.8124L77.9323 41.9136C77.8064 41.8146 77.8003 41.7639 77.6727 41.8084C76.6025 42.1819 75.4437 42.7941 74.3752 43.1666C60.5131 48.2857 43.2943 48.9977 29.0609 44.3698C28.7921 44.2824 28.5579 44.0918 28.4011 43.8589C30.0329 43.6959 33.0347 43.2527 34.6384 42.9249C39.4945 43.6789 44.3164 44.2191 49.2481 44.2547C58.1191 44.3186 71.614 42.6283 79.1726 37.5808Z" fill="#FE9101"/>
<path d="M74.3752 43.1666C75.4437 42.7941 76.6025 42.1819 77.6727 41.8084C77.8003 41.7639 77.8064 41.8146 77.9323 41.9136C76.8377 45.1698 76.0114 47.1021 74.5896 50.1661C73.9065 51.3891 73.1391 52.547 72.4673 53.7405C70.9656 55.934 69.3468 58.0788 67.3591 59.8574C63.9044 63.2261 61.2969 65.147 56.621 66.6921C54.7704 67.2294 50.7194 67.9871 48.7724 67.62C49.2776 67.5705 50.0501 67.6712 50.5449 67.5462C50.6682 67.3813 50.7228 67.14 50.9416 67.0757C58.5219 64.8719 64.7386 60.899 69.1012 54.191C71.5785 50.3822 73.2164 47.5502 74.3752 43.1666Z" fill="#FEB201"/>
<path d="M20.1593 37.5759C20.9766 37.8746 22.0075 38.5154 22.7999 38.9209C25.727 40.4187 28.7868 41.4362 31.9593 42.2747C32.7425 42.4817 33.9171 42.6491 34.6384 42.9249C33.0347 43.2527 30.0329 43.6959 28.4011 43.8589C27.444 43.9325 26.6122 43.9975 25.6503 44.0023C26.4419 47.7897 27.6406 51.4802 29.2254 55.0104C29.6388 55.9288 31.147 58.538 31.2934 59.0076C30.0769 57.8879 27.879 54.9757 26.8298 53.6008C26.0169 52.376 25.3784 51.3119 24.6305 50.048C23.3976 47.85 21.9709 44.2957 21.293 41.8755C20.8781 40.4208 20.4643 39.0603 20.1593 37.5759Z" fill="#FEFEFD"/>
<path d="M48.2673 34.0226C54.0534 34.4651 64.6283 32.9159 70.227 31.2699C74.7632 29.9361 80.6665 27.4183 83.4033 23.4035C84.1923 22.2459 84.2566 21.6577 84.8529 20.5804L84.9041 20.4902C84.8659 22.6813 84.7887 24.8715 84.6715 27.0597C84.6125 28.1749 84.5769 29.6902 84.3182 30.7383C84.0387 31.8432 83.8156 32.3874 83.287 33.4009L83.1898 33.5155C82.5952 34.227 82.1534 35.0795 81.4746 35.7267C80.7576 36.4109 79.946 36.9667 79.1726 37.5808C71.614 42.6283 58.1191 44.3186 49.2481 44.2547C44.3164 44.2191 39.4945 43.6789 34.6384 42.9249C33.9171 42.6491 32.7425 42.4817 31.9593 42.2747C28.7868 41.4362 25.727 40.4187 22.7999 38.9209C22.0075 38.5154 20.9766 37.8746 20.1593 37.5759C19.9551 37.2783 18.6311 36.4459 18.2256 36.0519C17.353 35.2036 16.7436 34.3735 16.0464 33.3974C15.4834 32.3777 15.2325 31.8491 14.8933 30.7395C14.4931 28.9463 14.4092 23.0486 14.4151 20.9826C14.745 21.4075 14.9003 21.8605 15.1615 22.3269C15.6731 23.2567 16.3049 24.1151 17.0405 24.88C21.2484 29.2778 29.927 31.8688 35.799 32.8508C39.9209 33.5456 44.0882 33.9372 48.2673 34.0226Z" fill="#FEB201"/>
<path d="M47.2126 4.56976C49.7785 4.48747 52.3469 4.51976 54.9093 4.66663C62.9591 5.20618 71.6114 6.90869 78.6501 11.037C81.6994 12.8249 84.8303 15.6425 84.918 19.4352C84.9241 19.787 84.9189 20.1389 84.9041 20.4902L84.8529 20.5804C84.2566 21.6577 84.1923 22.2459 83.4033 23.4035C80.6665 27.4183 74.7632 29.9361 70.227 31.2699C64.6283 32.9159 54.0534 34.4651 48.2673 34.0226C49.4382 31.9538 50.1265 30.7071 50.6213 28.3317C50.1803 28.3359 48.6605 28.4036 48.3888 28.2309C49.775 28.1351 51.5353 28.2557 53.0144 28.1776C58.6668 27.8789 68.0804 26.5889 72.397 22.6361C76.1364 18.9256 73.2693 15.5898 69.49 13.7383C63.1215 10.6188 55.8996 10.006 48.9079 9.95488C49.1457 9.80133 50.0232 9.8488 50.3652 9.84837C49.9668 8.25436 49.0962 6.81269 48.0832 5.52561C47.782 5.1436 47.3689 4.98024 47.2126 4.56976Z" fill="#FEC101"/>
<path d="M14.4151 20.9826C14.3974 20.6876 14.3837 20.3925 14.3743 20.0972C14.309 17.772 15.2937 15.6441 16.9175 14.041C23.9135 7.13428 37.937 4.78971 47.2126 4.56976C47.3689 4.98024 47.782 5.1436 48.0832 5.52561C49.0962 6.81269 49.9668 8.25436 50.3652 9.84837C50.0232 9.8488 49.1457 9.80133 48.9079 9.95488C42.2587 10.073 31.8218 11.0958 26.6296 15.9997C25.8123 16.7717 25.1009 18.1775 25.1741 19.3129C25.2686 20.7765 26.0585 21.7885 27.087 22.7411C31.9912 26.984 42.1121 28.1194 48.3888 28.2309C48.6605 28.4036 50.1803 28.3359 50.6213 28.3317C50.1265 30.7071 49.4382 31.9538 48.2673 34.0226C44.0882 33.9372 39.9209 33.5456 35.799 32.8508C29.927 31.8688 21.2484 29.2778 17.0405 24.88C16.3049 24.1151 15.6731 23.2567 15.1615 22.3269C14.9003 21.8605 14.745 21.4075 14.4151 20.9826Z" fill="#FED502"/>
<path d="M48.9079 9.95488C55.8996 10.006 63.1215 10.6188 69.49 13.7383C73.2693 15.5898 76.1364 18.9256 72.397 22.6361C71.7807 22.1052 70.5308 21.0515 69.819 20.6824C62.6345 16.959 53.1151 16.3633 45.1528 16.8522C40.3816 17.1452 33.9409 18.4245 29.724 20.6676C28.8733 21.1201 27.7807 22.0907 27.087 22.7411C26.0585 21.7885 25.2686 20.7765 25.1741 19.3129C25.1009 18.1775 25.8123 16.7717 26.6296 15.9997C31.8218 11.0958 42.2587 10.073 48.9079 9.95488Z" fill="#CD4A01"/>
<path d="M42.5777 66.6131C44.5981 67.087 46.6964 67.5757 48.7724 67.62C50.7194 67.9871 54.7704 67.2294 56.621 66.6921C56.7216 67.6365 57.0923 69.7492 57.1192 70.4601L57.265 71.0521C59.8031 71.4036 62.1302 71.8237 64.519 72.8419C65.196 73.1214 66.1673 73.6083 66.7081 74.1048C67.2931 74.597 67.6542 75.0015 67.8903 75.7549C68.458 77.5239 68.997 79.2929 69.5239 81.0828C69.799 82.0133 70.1341 83.2571 69.661 84.1911C68.7913 85.6979 66.2298 86.4774 64.6882 86.9253C64.3002 87.0347 63.9114 87.1397 63.5207 87.2395C58.1261 88.5311 52.0778 88.7872 46.5501 88.6153C45.6296 88.5867 43.2563 88.4704 42.3589 88.3133C39.4016 88.0893 36.4802 87.5242 33.6525 86.6302C31.9791 86.0174 28.6486 84.9983 29.3855 82.567C29.9991 80.5429 30.6885 76.9441 31.6551 75.1508C31.8412 74.6916 32.3305 74.2784 32.6964 73.9503C33.226 73.4955 33.7943 73.2394 34.4232 72.9556C37.0191 71.8298 39.1356 71.4548 41.8836 71.0234C42.1811 69.5643 42.4126 68.093 42.5777 66.6131Z" fill="#FED502"/>
<path d="M42.5777 66.6131C44.5981 67.087 46.6964 67.5757 48.7724 67.62C50.7194 67.9871 54.7704 67.2294 56.621 66.6921C56.7216 67.6365 57.0923 69.7492 57.1192 70.4601L57.265 71.0521C59.8031 71.4036 62.1302 71.8237 64.519 72.8419C65.196 73.1214 66.1673 73.6083 66.7081 74.1048C66.3522 74.7489 66.6898 75.5128 66.0571 76.2072C63.802 78.6784 54.7461 79.3033 51.4876 79.3789C47.5295 79.4717 36.1917 79.0846 33.2922 76.1881C32.6443 75.5405 32.7055 74.801 32.6964 73.9503C33.226 73.4955 33.7943 73.2394 34.4232 72.9556C37.0191 71.8298 39.1356 71.4548 41.8836 71.0234C42.1811 69.5643 42.4126 68.093 42.5777 66.6131Z" fill="#FE8900"/>
<path d="M42.5777 66.6131C44.5981 67.087 46.6964 67.5757 48.7724 67.62C50.7194 67.9871 54.7704 67.2294 56.621 66.6921C56.7216 67.6365 57.0923 69.7492 57.1192 70.4601C57.048 71.4279 57.7381 73.8401 57.9316 74.9598C57.469 75.3287 56.9265 75.3556 56.3753 75.5614C53.4449 76.6412 50.1795 76.5144 47.1172 76.2514C45.3603 76.1004 43.6538 75.6447 42.0969 74.8149C41.7165 74.6118 41.3989 74.6352 41.1792 74.229C41.3751 73.2039 41.6565 72.0537 41.8836 71.0234C42.1811 69.5643 42.4126 68.093 42.5777 66.6131Z" fill="#FE9101"/>
<path d="M41.8836 71.0234C41.6565 72.0537 41.3751 73.2039 41.1792 74.229L40.9876 75.4233C39.5906 74.9338 38.4236 74.262 37.0576 73.7177C36.191 73.3722 35.2991 73.2881 34.4232 72.9556C37.0191 71.8298 39.1356 71.4548 41.8836 71.0234Z" fill="#F5620D"/>
<path d="M57.265 71.0521C59.8031 71.4036 62.1302 71.8237 64.519 72.8419C64.2603 72.9816 62.9461 73.229 62.4774 73.3983C61.6745 73.6882 58.7901 75.4659 58.1565 75.3574C57.9082 73.8757 57.5983 72.5147 57.265 71.0521Z" fill="#F5620D"/>
<path d="M43.562 80.6791C50.4451 81.0645 54.444 81.1774 61.316 79.7495C61.8108 80.8423 63.5511 86.1658 63.5207 87.2395C58.1261 88.5311 52.0778 88.7872 46.5501 88.6153C45.6296 88.5867 43.2563 88.4704 42.3589 88.3133C42.5984 85.5582 43.2457 83.2675 43.562 80.6791Z" fill="#FEC101"/>
<path d="M67.8903 75.7549C68.458 77.5239 68.997 79.2929 69.5239 81.0828C69.799 82.0133 70.1341 83.2571 69.661 84.1911C68.7913 85.6979 66.2298 86.4774 64.6882 86.9253C64.3002 87.0347 63.9114 87.1397 63.5207 87.2395C63.5511 86.1658 61.8108 80.8423 61.316 79.7495C63.4122 79.2808 67.2792 78.1602 67.8903 75.7549Z" fill="#FEB201"/>
<path d="M31.6551 75.1508C31.2512 77.3165 34.3554 78.6957 35.9557 79.3424C35.2622 81.0177 34.8542 82.7771 34.3248 84.507C34.1237 85.1641 33.928 86.0148 33.6525 86.6302C31.9791 86.0174 28.6486 84.9983 29.3855 82.567C29.9991 80.5429 30.6885 76.9441 31.6551 75.1508Z" fill="#FEC101"/>
<path d="M89.3552 18.2679C89.4863 19.3353 89.4993 22.1043 89.3431 23.1927C89.2033 21.986 89.1087 19.449 89.3552 18.2679Z" fill="black" fill-opacity="0.972549"/>
</svg>
